<svg width="56" height="45" viewBox="0 0 56 45" fill="none" xmlns="http://www.w3.org/2000/svg">
<path fill-rule="evenodd" clip-rule="evenodd" d="M54 24H1.5C0.671 24 0 23.329 0 22.5C0 21.671 0.671 21 1.5 21H54C54.828 21 55.5 21.671 55.5 22.5C55.5 23.329 54.828 24 54 24Z" fill="white"/>
<path fill-rule="evenodd" clip-rule="evenodd" d="M54 45H1.5C0.671 45 0 44.328 0 43.5C0 42.672 0.671 42 1.5 42H54C54.828 42 55.5 42.672 55.5 43.5C55.5 44.328 54.828 45 54 45Z" fill="white"/>
<path fill-rule="evenodd" clip-rule="evenodd" d="M54 3H1.5C0.671 3 0 2.329 0 1.5C0 0.671 0.671 0 1.5 0H54C54.828 0 55.5 0.671 55.5 1.5C55.5 2.329 54.828 3 54 3Z" fill="white"/>
</svg>
