<svg width="266" height="27" viewBox="0 0 266 27" fill="none" xmlns="http://www.w3.org/2000/svg">
<line x1="18.6119" y1="26.4807" x2="1.27856" y2="0.48074" stroke="#D4D4D8" stroke-width="1.73333"/>
<line x1="30.7467" y1="26.4807" x2="13.4133" y2="0.48074" stroke="#D4D4D8" stroke-width="1.73333"/>
<line x1="42.8785" y1="26.4807" x2="25.5452" y2="0.48074" stroke="#D4D4D8" stroke-width="1.73333"/>
<line x1="55.0123" y1="26.4807" x2="37.679" y2="0.48074" stroke="#D4D4D8" stroke-width="1.73333"/>
<line x1="67.1451" y1="26.4807" x2="49.8118" y2="0.48074" stroke="#D4D4D8" stroke-width="1.73333"/>
<line x1="84.6119" y1="26.4807" x2="67.2786" y2="0.48074" stroke="#D4D4D8" stroke-width="1.73333"/>
<line x1="96.7467" y1="26.4807" x2="79.4133" y2="0.48074" stroke="#D4D4D8" stroke-width="1.73333"/>
<line x1="108.878" y1="26.4807" x2="91.5452" y2="0.48074" stroke="#D4D4D8" stroke-width="1.73333"/>
<line x1="121.012" y1="26.4807" x2="103.679" y2="0.48074" stroke="#D4D4D8" stroke-width="1.73333"/>
<line x1="133.145" y1="26.4807" x2="115.812" y2="0.48074" stroke="#D4D4D8" stroke-width="1.73333"/>
<line x1="150.612" y1="26.4807" x2="133.279" y2="0.48074" stroke="#D4D4D8" stroke-width="1.73333"/>
<line x1="162.747" y1="26.4807" x2="145.413" y2="0.48074" stroke="#D4D4D8" stroke-width="1.73333"/>
<line x1="174.878" y1="26.4807" x2="157.545" y2="0.48074" stroke="#D4D4D8" stroke-width="1.73333"/>
<line x1="187.012" y1="26.4807" x2="169.679" y2="0.48074" stroke="#D4D4D8" stroke-width="1.73333"/>
<line x1="199.145" y1="26.4807" x2="181.812" y2="0.48074" stroke="#D4D4D8" stroke-width="1.73333"/>
<line x1="216.612" y1="26.4807" x2="199.279" y2="0.48074" stroke="#D4D4D8" stroke-width="1.73333"/>
<line x1="228.747" y1="26.4807" x2="211.413" y2="0.48074" stroke="#D4D4D8" stroke-width="1.73333"/>
<line x1="240.878" y1="26.4807" x2="223.545" y2="0.48074" stroke="#D4D4D8" stroke-width="1.73333"/>
<line x1="253.012" y1="26.4807" x2="235.679" y2="0.48074" stroke="#D4D4D8" stroke-width="1.73333"/>
<line x1="265.145" y1="26.4807" x2="247.812" y2="0.48074" stroke="#D4D4D8" stroke-width="1.73333"/>
</svg>
